# xmcd
#
# Track frame offsets: 
#        182
#        25730
#        44915
#        61947
#        81047
#        95265
#        116990
#        132030
#        149335
#        164800
#        187347
#        207070
#        228005
#
# Disc length: 3372 seconds
#
# Revision: 0
# Processed by: cddbd v1.4PL0 Copyright (c) Steve Scherf et al.
# Submitted via: ExactAudioCopy v0.90a11
#
DISCID=b90d2a0d
DTITLE=Various Artist - St. Louis Blues Today
DYEAR=1900
DGENRE=
TTITLE0=Oliver Sain - Underground Blues
TTITLE1=Tommy Bankhead - Little Country Girl
TTITLE2=Tommy Bankhead - I'm Just A Poor Boy
TTITLE3=Tommy Bankhead - You Know I Love You
TTITLE4=Tommy Bankhead - Don't Take Your Shoes Off
TTITLE5=Doc Terry - Born In The Delta
TTITLE6=Doc Terry - A.C.D. Blues
TTITLE7=Piano Slim - Blues At Mid-Nite
TTITLE8=Piano Slim - Playin Games With My Mind
TTITLE9=J.R. Reed - Late In The Evening
TTITLE10=J.R. Reed - Look What I Got For You
TTITLE11=J.R. Reed - Everything Is Fine
TTITLE12=J.R. Reed - Love You Most Every Day
EXTD=Wolf Records 120.941
EXTT0=
EXTT1=
EXTT2=
EXTT3=
EXTT4=
EXTT5=
EXTT6=
EXTT7=
EXTT8=
EXTT9=
EXTT10=
EXTT11=
EXTT12=
PLAYORDER=
